# xmcd
#
# Track frame offsets:
#	180
#	9366
#	22093
#	29619
#	50586
#	69897
#	78865
#	99533
#	116238
#	136385
#
# Disc length: 2059 seconds
#
# Revision: 0
# Processed by: cddbd v1.5.2PL0 Copyright (c) Steve Scherf et al.
# Submitted via: EasyCDDAExtractor 12.0.0.1
#
DISCID=7f08090a
DTITLE=Various Artist - Varig Collection - Brazilian Songs Vol 2
DYEAR=1900
DGENRE=
TTITLE0=António Carlos Jobim - Luiza
TTITLE1=Elis Regina - Atrás Da Porta
TTITLE2=João Gilberto - Samba De Uma Nota Só
TTITLE3=Angela Rôrô - Simples Carinho
TTITLE4=Fáfá de Belém - Foi Asim
TTITLE5=João Gilberto - Desafinado
TTITLE6=Itamara Koorax - Se Eu Quiser Falar Com Deus
TTITLE7=Zizi Possi - A Paz
TTITLE8=António Carlos Jobim - Anos Dourados
TTITLE9=Simone - Tô Voltando
EXTD=
EXTT0=
EXTT1=
EXTT2=
EXTT3=
EXTT4=
EXTT5=
EXTT6=
EXTT7=
EXTT8=
EXTT9=
PLAYORDER=
